erDiagram
    OLIST_CUSTOMERS {
        string customer_id PK
        string customer_unique_id
        int customer_zip_code_prefix FK
        string customer_city
        string customer_state
    }

    OLIST_ORDERS {
        string order_id PK
        string customer_id FK
        string order_status
        datetime order_purchase_timestamp
        datetime order_delivered_customer_date
        datetime order_estimated_delivery_date
    }

    OLIST_ORDER_ITEMS {
        string order_id FK
        int order_item_id
        string product_id FK
        string seller_id FK
        datetime shipping_limit_date
        float price
        float freight_value
    }

    OLIST_ORDER_PAYMENTS {
        string order_id FK
        int payment_sequential
        string payment_type
        int payment_installments
        float payment_value
    }

    OLIST_ORDER_REVIEWS {
        string review_id PK
        string order_id FK
        int review_score
        string review_comment_title
        string review_comment_message
        datetime review_creation_date
    }

    OLIST_PRODUCTS {
        string product_id PK
        string product_category_name FK
        int product_name_lenght
        int product_description_lenght
        int product_weight_g
    }

    OLIST_SELLERS {
        string seller_id PK
        int seller_zip_code_prefix FK
        string seller_city
        string seller_state
    }

    PRODUCT_CATEGORY_NAME_TRANSLATION {
        string product_category_name PK
        string product_category_name_english
    }

    OLIST_GEOLOCATION {
        int geolocation_zip_code_prefix
        float geolocation_lat
        float geolocation_lng
        string geolocation_city
        string geolocation_state
    }

    OLIST_CUSTOMERS ||--o{ OLIST_ORDERS : faz
    OLIST_ORDERS ||--|{ OLIST_ORDER_ITEMS : contem
    OLIST_ORDERS ||--|{ OLIST_ORDER_PAYMENTS : recebe
    OLIST_ORDERS ||--o| OLIST_ORDER_REVIEWS : gera
    OLIST_PRODUCTS ||--o{ OLIST_ORDER_ITEMS : aparece_em
    OLIST_SELLERS ||--o{ OLIST_ORDER_ITEMS : vende
    PRODUCT_CATEGORY_NAME_TRANSLATION ||--o{ OLIST_PRODUCTS : traduz
    OLIST_GEOLOCATION ||--o{ OLIST_CUSTOMERS : aproxima_por_cep
    OLIST_GEOLOCATION ||--o{ OLIST_SELLERS : aproxima_por_cep
